HIERARCHY
ROOT Hips
{
	OFFSET -0.001795 -0.223333 0.028219
	CHANNELS 6 Xposition Yposition Zposition Zrotation Yrotation Xrotation 
	JOINT LeftUpLeg
	{
		OFFSET 0.069520 -0.091406 -0.006815
		CHANNELS 3 Zrotation Yrotation Xrotation
		JOINT LeftLeg
		{
			OFFSET 0.034277 -0.375199 -0.004496
			CHANNELS 3 Zrotation Yrotation Xrotation
			JOINT LeftFoot
			{
				OFFSET -0.013596 -0.397961 -0.043693
				CHANNELS 3 Zrotation Yrotation Xrotation
				JOINT LeftToe
				{
					OFFSET 0.026358 -0.055791 0.119288
					CHANNELS 3 Zrotation Yrotation Xrotation
					End Site
					{
						OFFSET 0.000000 0.000000 0.000000
					}
				}
			}
		}
	}
	JOINT RightUpLeg
	{
		OFFSET -0.067670 -0.090522 -0.004320
		CHANNELS 3 Zrotation Yrotation Xrotation
		JOINT RightLeg
		{
			OFFSET -0.038290 -0.382569 -0.008850
			CHANNELS 3 Zrotation Yrotation Xrotation
			JOINT RightFoot
			{
				OFFSET 0.015774 -0.398415 -0.042312
				CHANNELS 3 Zrotation Yrotation Xrotation
				JOINT RightToe
				{
					OFFSET -0.025372 -0.048144 0.123348
					CHANNELS 3 Zrotation Yrotation Xrotation
					End Site
					{
						OFFSET 0.000000 0.000000 0.000000
					}
				}
			}
		}
	}
	JOINT Spine
	{
		OFFSET -0.002533 0.108963 -0.026696
		CHANNELS 3 Zrotation Yrotation Xrotation
		JOINT Spine1
		{
			OFFSET 0.005487 0.135180 0.001092
			CHANNELS 3 Zrotation Yrotation Xrotation
			JOINT Spine2
			{
				OFFSET 0.001457 0.052922 0.025425
				CHANNELS 3 Zrotation Yrotation Xrotation
				JOINT Neck
				{
					OFFSET -0.002778 0.213870 -0.042857
					CHANNELS 3 Zrotation Yrotation Xrotation
					JOINT Head
					{
						OFFSET 0.005152 0.064970 0.051349
						CHANNELS 3 Zrotation Yrotation Xrotation
						End Site
						{
							OFFSET 0.000000 0.000000 0.000000
						}
					}
				}
				JOINT LeftShoulder
				{
					OFFSET 0.078845 0.121749 -0.034090
					CHANNELS 3 Zrotation Yrotation Xrotation
					JOINT LeftArm
					{
						OFFSET 0.090977 0.030469 -0.008868
						CHANNELS 3 Zrotation Yrotation Xrotation
						JOINT LeftForeArm
						{
							OFFSET 0.259612 -0.012772 -0.027456
							CHANNELS 3 Zrotation Yrotation Xrotation
							JOINT LeftHand
							{
								OFFSET 0.249234 0.008986 -0.001171
								CHANNELS 3 Zrotation Yrotation Xrotation
								End Site
								{
									OFFSET 0.000000 0.000000 0.000000
								}
							}
						}
					}
				}
				JOINT RightShoulder
				{
					OFFSET -0.081759 0.118833 -0.038615
					CHANNELS 3 Zrotation Yrotation Xrotation
					JOINT RightArm
					{
						OFFSET -0.096012 0.032551 -0.009143
						CHANNELS 3 Zrotation Yrotation Xrotation
						JOINT RightForeArm
						{
							OFFSET -0.253742 -0.013329 -0.021401
							CHANNELS 3 Zrotation Yrotation Xrotation
							JOINT RightHand
							{
								OFFSET -0.255298 0.007772 -0.005559
								CHANNELS 3 Zrotation Yrotation Xrotation
								End Site
								{
									OFFSET 0.000000 0.000000 0.000000
								}
							}
						}
					}
				}
			}
		}
	}
}
MOTION
Frames: 7
Frame Time: 0.050000
0.000000 0.953544 0.000000 -1.917340 4.491481 7.083242 4.860953 -0.340789 -3.273604 5.153552 -0.377884 -1.768008 1.287695 8.068993 14.880223 0.000000 0.000000 0.000000 -2.778319 0.568646 -6.263978 -1.109100 0.032839 -1.867359 -2.720694 -11.326913 23.636080 0.000000 0.000000 0.000000 1.116654 0.133447 -3.597789 1.374525 -0.386776 -4.927061 -0.394416 -1.561239 3.554244 1.304868 0.029853 -11.110376 0.000000 0.000000 0.000000 -16.741805 1.730481 -2.722222 -58.316547 -6.141960 -3.832744 -10.335766 -16.689238 2.087761 0.000000 0.000000 0.000000 14.859892 -2.547503 -2.463443 62.229189 5.865154 -2.779957 4.773862 14.310437 0.983024 0.000000 0.000000 0.000000 
0.000323 0.952368 0.000100 -2.109330 3.766068 7.539317 4.126666 -0.326222 -3.186297 6.619547 -0.446037 -2.481526 1.725082 8.649986 14.936928 0.000000 0.000000 0.000000 -3.187578 0.607849 -6.856771 -0.376510 -0.019969 -1.456214 -1.861940 -9.927936 22.122127 0.000000 0.000000 0.000000 1.719694 0.140842 -3.770865 0.245567 0.080475 -5.038139 0.518967 -1.400520 3.183433 0.460522 0.583050 -11.586585 0.000000 0.000000 0.000000 -17.706744 2.703026 -3.262549 -57.796670 -5.854058 -3.893308 -11.689863 -17.263916 2.379484 0.000000 0.000000 0.000000 14.121275 -3.146693 -2.767807 62.962434 5.124123 -3.171770 5.442880 15.128405 1.108612 0.000000 0.000000 0.000000 
0.000524 0.952269 -0.000031 -1.909666 4.302923 7.286192 4.093837 -0.320233 -3.069861 6.398396 -0.430046 -2.416455 1.434601 8.241829 14.773174 0.000000 0.000000 0.000000 -3.234696 0.597799 -6.826744 -0.419768 0.008181 -0.911193 -2.563149 -10.910333 22.132915 0.000000 0.000000 0.000000 1.400060 0.112227 -3.184259 0.499568 0.040454 -6.474662 -0.031575 -1.719070 3.769437 0.206436 0.749822 -11.489998 0.000000 0.000000 0.000000 -16.938019 2.375635 -3.001336 -58.296374 -5.589230 -4.125672 -11.246858 -17.589013 2.357822 0.000000 0.000000 0.000000 15.782814 -2.510555 -2.612141 61.306986 4.820110 -3.329166 5.243329 14.535207 1.044798 0.000000 0.000000 0.000000 
0.000645 0.952067 -0.000031 -2.335532 4.337805 7.452127 4.161552 -0.334490 -3.277983 7.103568 -0.487779 -2.418096 1.488445 8.313043 14.710760 0.000000 0.000000 0.000000 -3.223709 0.647192 -7.515104 0.009546 -0.017122 -0.413314 -2.068996 -10.297230 23.138286 0.000000 0.000000 0.000000 1.632928 0.113019 -3.238388 0.025905 0.215529 -6.053072 0.904931 -2.423992 2.880704 -0.153269 0.895143 -11.204686 0.000000 0.000000 0.000000 -16.432682 3.193786 -3.183182 -59.578758 -5.897254 -3.961385 -11.140570 -17.609808 2.368228 0.000000 0.000000 0.000000 14.704007 -2.521716 -2.679035 61.569188 4.421555 -3.478844 6.171479 14.417758 1.108824 0.000000 0.000000 0.000000 
0.000688 0.952188 -0.000071 -2.204684 5.103265 7.246815 4.119724 -0.330608 -3.160770 7.101319 -0.469827 -2.544818 1.066961 7.755551 14.628006 0.000000 0.000000 0.000000 -3.274564 0.624263 -7.320591 0.005621 -0.012471 -0.302450 -2.622055 -11.061309 23.685819 0.000000 0.000000 0.000000 1.334712 0.100229 -2.958984 0.538321 0.028715 -6.270756 0.558262 -2.760581 3.090714 -0.432653 1.119997 -11.679399 0.000000 0.000000 0.000000 -16.275091 2.859054 -3.023705 -59.739332 -6.246284 -3.823158 -11.671556 -17.429818 2.419414 0.000000 0.000000 0.000000 14.745466 -2.394467 -2.582223 61.329640 4.471504 -3.458219 6.709174 14.239289 1.154408 0.000000 0.000000 0.000000 
0.000746 0.952491 -0.000064 -2.215959 5.214584 7.344440 4.018634 -0.338311 -3.305116 7.317356 -0.487917 -2.530435 0.995700 7.693969 14.724503 0.000000 0.000000 0.000000 -3.219612 0.639511 -7.524698 -0.121650 0.003681 -0.249533 -2.628375 -11.118745 24.218958 0.000000 0.000000 0.000000 1.093962 0.108749 -3.119262 0.681738 -0.030023 -6.209592 0.844863 -3.053252 3.106714 -0.353899 1.050464 -11.752432 0.000000 0.000000 0.000000 -16.309222 3.150839 -3.118376 -59.818307 -6.243744 -3.828239 -11.731924 -17.772634 2.489153 0.000000 0.000000 0.000000 14.460314 -2.297915 -2.549549 61.408881 4.657512 -3.380034 6.606948 13.992136 1.115211 0.000000 0.000000 0.000000 
0.000779 0.952537 -0.000042 -2.167734 5.471981 7.323814 3.888519 -0.330194 -3.170746 7.511094 -0.472449 -2.826592 0.836374 7.503620 14.774887 0.000000 0.000000 0.000000 -3.054502 0.642107 -7.505596 -0.350988 0.034091 -0.132378 -2.989106 -11.595314 24.149225 0.000000 0.000000 0.000000 0.987980 0.108002 -3.104944 0.863882 -0.103762 -6.115179 0.699745 -3.382967 3.099603 -0.190341 0.942480 -11.918305 0.000000 0.000000 0.000000 -16.225212 3.321636 -3.162307 -59.684456 -5.967061 -3.956898 -12.268819 -17.934356 2.603775 0.000000 0.000000 0.000000 14.438503 -2.137537 -2.497624 61.283451 4.456639 -3.481011 6.956803 14.378030 1.183484 0.000000 0.000000 0.000000 
